<?xml version="1.0" standalone="no"?>
<!DOCTYPE svg PUBLIC "-//W3C//DTD SVG 20010904//EN"
 "http://www.w3.org/TR/2001/REC-SVG-20010904/DTD/svg10.dtd">
<svg version="1.0" xmlns="http://www.w3.org/2000/svg"
 width="300.000000pt" height="300.000000pt" viewBox="0 0 300.000000 300.000000"
 preserveAspectRatio="xMidYMid meet">
<metadata>
Created by potrace 1.10, written by Peter Selinger 2001-2011
</metadata>
<g transform="translate(0.000000,300.000000) scale(0.100000,-0.100000)"
fill="#000000" stroke="none">
<path d="M154 2916 c-17 -8 -41 -27 -53 -44 l-21 -30 0 -1353 c0 -1494 -5
-1378 63 -1419 31 -19 61 -20 1355 -20 1450 0 1356 -4 1401 59 l21 29 0 1348
c0 1276 -1 1349 -18 1378 -10 17 -33 39 -52 48 -33 17 -118 18 -1350 18 -1082
-1 -1321 -3 -1346 -14z m2671 -26 c4 -6 10 -8 15 -5 5 3 19 -9 32 -27 l23 -33
2 -1315 c2 -956 0 -1324 -9 -1349 -12 -39 -33 -64 -63 -76 -11 -4 -605 -8
-1320 -10 -1260 -2 -1301 -1 -1338 17 -23 11 -44 31 -51 49 -10 23 -12 322
-12 1357 1 1311 1 1327 21 1354 11 15 29 31 40 37 28 14 2652 15 2660 1z"/>
<path d="M1246 2150 c-19 -21 -54 -98 -62 -135 -1 -5 -10 -30 -19 -55 -25 -65
-78 -211 -115 -315 -28 -80 -54 -150 -79 -210 -10 -23 -59 -159 -71 -195 -4
-14 -12 -34 -16 -45 -4 -11 -8 -22 -9 -25 -1 -3 -4 -12 -8 -20 -36 -92 -87
-246 -87 -265 0 -17 8 -26 31 -34 45 -16 377 -14 408 2 18 9 31 31 47 80 12
38 26 73 31 78 5 5 92 8 203 7 l194 -3 26 -75 c19 -55 31 -78 50 -87 17 -9 79
-12 205 -12 213 2 239 5 243 37 3 20 -25 123 -48 177 -18 41 -58 151 -65 175
-3 14 -10 34 -15 45 -31 74 -77 202 -85 235 -1 3 -7 19 -14 35 -7 17 -37 98
-67 180 -30 83 -58 159 -63 170 -5 11 -24 63 -42 115 -18 52 -40 109 -49 125
l-17 30 -242 5 -242 5 -23 -25z m499 -13 c2 -7 21 -61 43 -122 22 -60 75 -204
117 -320 129 -357 176 -484 240 -658 l63 -167 -222 2 -221 3 -3 25 c-2 14 -7
30 -12 35 -4 6 -13 34 -21 63 l-13 52 -222 0 -222 0 -15 -48 c-8 -26 -20 -66
-27 -89 l-11 -43 -209 0 c-116 0 -210 3 -210 8 0 4 23 68 51 142 27 74 59 160
69 190 11 30 42 118 71 195 28 77 68 187 89 245 21 58 57 157 80 220 23 63 51
140 62 170 11 30 25 67 30 83 l11 27 239 0 c175 -1 240 -4 243 -13z"/>
<path d="M1486 1779 c-2 -8 -7 -27 -11 -44 -7 -32 -51 -182 -91 -305 -13 -41
-24 -80 -24 -85 0 -6 52 -10 135 -10 115 0 134 2 130 15 -2 8 -16 56 -31 105
-14 50 -32 110 -39 135 -8 25 -23 79 -35 120 -25 83 -28 89 -34 69z m60 -253
c39 -130 41 -152 14 -161 -33 -11 -149 -3 -154 10 -2 7 7 50 21 96 13 46 31
105 38 131 18 64 25 75 38 53 5 -10 25 -68 43 -129z"/>
</g>
</svg>
